<svg width="70" height="97" viewBox="0 0 70 97" fill="none" xmlns="http://www.w3.org/2000/svg">
<circle cx="34" cy="28" r="22" fill="#C4C4C4" fill-opacity="0.4"/>
<path d="M47 41H22V16H47V41Z" fill="#FEC478"/>
<path d="M47 41H34.5V16H47V41Z" fill="#FEC478"/>
<path d="M45.5352 39.5352H23.4648V17.4648H45.5352V39.5352Z" fill="#994C0F"/>
<path d="M45.5352 39.5352H34.5V17.4648H45.5352V39.5352Z" fill="#994C0F"/>
<path d="M32.1318 24.8672H33.5615L36.7256 33.1875H35.0615L34.2881 31.1133H31.3818L30.6201 33.1875H28.9561L32.1318 24.8672ZM33.9951 29.9766L32.8467 26.707L31.6514 29.9766H33.9951Z" fill="#FEC478"/>
<path d="M37.4873 26.1914V24.6328H39.0576V26.1914H37.4873ZM37.4873 33.1875V27.0469H39.0576V33.1875H37.4873Z" fill="#FEC478"/>
<path d="M34.5 27.3347V31.6813L35.0616 33.1874H36.7257L34.5 27.3347Z" fill="#FEC478"/>
<path d="M57.3253 43.4897C60.1572 39.2252 61.7659 34.2659 61.9763 29.1511C62.1868 24.0362 60.991 18.9615 58.5189 14.4788C56.0468 9.99602 52.3931 6.27677 47.955 3.72539C43.517 1.17401 38.4644 -0.111842 33.3466 0.00762586L33.4466 4.29136C37.7812 4.19017 42.0606 5.27925 45.8195 7.44019C49.5784 9.60112 52.673 12.7512 54.7667 16.5479C56.8605 20.3447 57.8733 24.6428 57.6951 28.9749C57.5168 33.307 56.1543 37.5074 53.7558 41.1193L57.3253 43.4897Z" fill="#3B5999"/>
<path d="M18.9923 72.732H14.0923L13.1263 75H11.2503L15.6603 65.2H17.4523L21.8763 75H19.9723L18.9923 72.732ZM18.3903 71.304L16.5423 67.02L14.7083 71.304H18.3903ZM30.2083 64.612V75H28.5283V74.034C28.2389 74.3887 27.8796 74.6547 27.4503 74.832C27.0303 75.0093 26.5636 75.098 26.0503 75.098C25.3316 75.098 24.6829 74.9393 24.1043 74.622C23.5349 74.3047 23.0869 73.8567 22.7603 73.278C22.4336 72.69 22.2703 72.018 22.2703 71.262C22.2703 70.506 22.4336 69.8387 22.7603 69.26C23.0869 68.6813 23.5349 68.2333 24.1043 67.916C24.6829 67.5987 25.3316 67.44 26.0503 67.44C26.5449 67.44 26.9976 67.524 27.4083 67.692C27.8189 67.86 28.1689 68.112 28.4583 68.448V64.612H30.2083ZM26.2603 73.6C26.6803 73.6 27.0583 73.5067 27.3943 73.32C27.7303 73.124 27.9963 72.8487 28.1923 72.494C28.3883 72.1393 28.4863 71.7287 28.4863 71.262C28.4863 70.7953 28.3883 70.3847 28.1923 70.03C27.9963 69.6753 27.7303 69.4047 27.3943 69.218C27.0583 69.022 26.6803 68.924 26.2603 68.924C25.8403 68.924 25.4623 69.022 25.1263 69.218C24.7903 69.4047 24.5243 69.6753 24.3283 70.03C24.1323 70.3847 24.0343 70.7953 24.0343 71.262C24.0343 71.7287 24.1323 72.1393 24.3283 72.494C24.5243 72.8487 24.7903 73.124 25.1263 73.32C25.4623 73.5067 25.8403 73.6 26.2603 73.6ZM35.8576 75.098C35.1016 75.098 34.4203 74.9347 33.8136 74.608C33.2069 74.2813 32.7309 73.8287 32.3856 73.25C32.0496 72.662 31.8816 71.9993 31.8816 71.262C31.8816 70.5247 32.0496 69.8667 32.3856 69.288C32.7309 68.7093 33.2069 68.2567 33.8136 67.93C34.4203 67.6033 35.1016 67.44 35.8576 67.44C36.6229 67.44 37.3089 67.6033 37.9156 67.93C38.5223 68.2567 38.9936 68.7093 39.3296 69.288C39.6749 69.8667 39.8476 70.5247 39.8476 71.262C39.8476 71.9993 39.6749 72.662 39.3296 73.25C38.9936 73.8287 38.5223 74.2813 37.9156 74.608C37.3089 74.9347 36.6229 75.098 35.8576 75.098ZM35.8576 73.6C36.5016 73.6 37.0336 73.3853 37.4536 72.956C37.8736 72.5267 38.0836 71.962 38.0836 71.262C38.0836 70.562 37.8736 69.9973 37.4536 69.568C37.0336 69.1387 36.5016 68.924 35.8576 68.924C35.2136 68.924 34.6816 69.1387 34.2616 69.568C33.8509 69.9973 33.6456 70.562 33.6456 71.262C33.6456 71.962 33.8509 72.5267 34.2616 72.956C34.6816 73.3853 35.2136 73.6 35.8576 73.6ZM45.665 67.44C46.393 67.44 47.0417 67.5987 47.611 67.916C48.1897 68.2333 48.6424 68.6813 48.969 69.26C49.2957 69.8387 49.459 70.506 49.459 71.262C49.459 72.018 49.2957 72.69 48.969 73.278C48.6424 73.8567 48.1897 74.3047 47.611 74.622C47.0417 74.9393 46.393 75.098 45.665 75.098C45.1517 75.098 44.6804 75.0093 44.251 74.832C43.831 74.6547 43.4764 74.3887 43.187 74.034V75H41.521V64.612H43.271V68.434C43.5697 68.1073 43.9197 67.86 44.321 67.692C44.7317 67.524 45.1797 67.44 45.665 67.44ZM45.469 73.6C46.113 73.6 46.6404 73.3853 47.051 72.956C47.471 72.5267 47.681 71.962 47.681 71.262C47.681 70.562 47.471 69.9973 47.051 69.568C46.6404 69.1387 46.113 68.924 45.469 68.924C45.049 68.924 44.671 69.022 44.335 69.218C43.999 69.4047 43.733 69.6753 43.537 70.03C43.341 70.3847 43.243 70.7953 43.243 71.262C43.243 71.7287 43.341 72.1393 43.537 72.494C43.733 72.8487 43.999 73.124 44.335 73.32C44.671 73.5067 45.049 73.6 45.469 73.6ZM58.1467 71.304C58.1467 71.4253 58.1374 71.598 58.1187 71.822H52.2527C52.3554 72.3727 52.6214 72.8113 53.0507 73.138C53.4894 73.4553 54.0307 73.614 54.6747 73.614C55.496 73.614 56.1727 73.3433 56.7047 72.802L57.6427 73.88C57.3067 74.2813 56.882 74.5847 56.3687 74.79C55.8554 74.9953 55.2767 75.098 54.6327 75.098C53.8114 75.098 53.088 74.9347 52.4627 74.608C51.8374 74.2813 51.352 73.8287 51.0067 73.25C50.6707 72.662 50.5027 71.9993 50.5027 71.262C50.5027 70.534 50.666 69.8807 50.9927 69.302C51.3287 68.714 51.7907 68.2567 52.3787 67.93C52.9667 67.6033 53.6294 67.44 54.3667 67.44C55.0947 67.44 55.7434 67.6033 56.3127 67.93C56.8914 68.2473 57.3394 68.7 57.6567 69.288C57.9834 69.8667 58.1467 70.5387 58.1467 71.304ZM54.3667 68.84C53.8067 68.84 53.3307 69.008 52.9387 69.344C52.556 69.6707 52.3227 70.1093 52.2387 70.66H56.4807C56.406 70.1187 56.1774 69.68 55.7947 69.344C55.412 69.008 54.936 68.84 54.3667 68.84ZM1.31206 85.524H3.06206V93H1.31206V85.524ZM2.19406 84.292C1.87673 84.292 1.61073 84.194 1.39606 83.998C1.1814 83.7927 1.07406 83.5407 1.07406 83.242C1.07406 82.9433 1.1814 82.696 1.39606 82.5C1.61073 82.2947 1.87673 82.192 2.19406 82.192C2.5114 82.192 2.7774 82.29 2.99206 82.486C3.20673 82.6727 3.31406 82.9107 3.31406 83.2C3.31406 83.508 3.20673 83.7693 2.99206 83.984C2.78673 84.1893 2.52073 84.292 2.19406 84.292ZM5.35894 82.612H7.10894V93H5.35894V82.612ZM9.40581 82.612H11.1558V93H9.40581V82.612ZM20.6907 85.524V93H19.0247V92.048C18.7447 92.384 18.3947 92.6453 17.9747 92.832C17.5547 93.0093 17.102 93.098 16.6167 93.098C15.618 93.098 14.8294 92.8227 14.2507 92.272C13.6814 91.712 13.3967 90.886 13.3967 89.794V85.524H15.1467V89.556C15.1467 90.228 15.296 90.732 15.5947 91.068C15.9027 91.3947 16.3367 91.558 16.8967 91.558C17.522 91.558 18.0167 91.3667 18.3807 90.984C18.754 90.592 18.9407 90.032 18.9407 89.304V85.524H20.6907ZM25.292 93.098C24.6853 93.098 24.0927 93.0187 23.514 92.86C22.9353 92.7013 22.4733 92.5007 22.128 92.258L22.8 90.928C23.136 91.152 23.5373 91.334 24.004 91.474C24.48 91.6047 24.9467 91.67 25.404 91.67C26.4493 91.67 26.972 91.3947 26.972 90.844C26.972 90.5827 26.8367 90.4007 26.566 90.298C26.3047 90.1953 25.88 90.0973 25.292 90.004C24.676 89.9107 24.172 89.8033 23.78 89.682C23.3973 89.5607 23.0613 89.3507 22.772 89.052C22.492 88.744 22.352 88.3193 22.352 87.778C22.352 87.0687 22.646 86.504 23.234 86.084C23.8313 85.6547 24.634 85.44 25.642 85.44C26.1553 85.44 26.6687 85.5007 27.182 85.622C27.6953 85.734 28.1153 85.888 28.442 86.084L27.77 87.414C27.1353 87.0407 26.4213 86.854 25.628 86.854C25.1147 86.854 24.7227 86.9333 24.452 87.092C24.1907 87.2413 24.06 87.442 24.06 87.694C24.06 87.974 24.2 88.1747 24.48 88.296C24.7693 88.408 25.2127 88.5153 25.81 88.618C26.4073 88.7113 26.8973 88.8187 27.28 88.94C27.6627 89.0613 27.9893 89.2667 28.26 89.556C28.54 89.8453 28.68 90.256 28.68 90.788C28.68 91.488 28.3767 92.048 27.77 92.468C27.1633 92.888 26.3373 93.098 25.292 93.098ZM34.6811 92.594C34.4757 92.762 34.2237 92.888 33.9251 92.972C33.6357 93.056 33.3277 93.098 33.0011 93.098C32.1797 93.098 31.5451 92.8833 31.0971 92.454C30.6491 92.0247 30.4251 91.3993 30.4251 90.578V86.98H29.1931V85.58H30.4251V83.872H32.1751V85.58H34.1771V86.98H32.1751V90.536C32.1751 90.9 32.2637 91.18 32.4411 91.376C32.6184 91.5627 32.8751 91.656 33.2111 91.656C33.6031 91.656 33.9297 91.5533 34.1911 91.348L34.6811 92.594ZM37.7867 86.616C38.2907 85.832 39.1773 85.44 40.4467 85.44V87.106C40.2973 87.078 40.162 87.064 40.0407 87.064C39.3593 87.064 38.8273 87.2647 38.4447 87.666C38.062 88.058 37.8707 88.6273 37.8707 89.374V93H36.1207V85.524H37.7867V86.616ZM44.7462 85.44C45.8475 85.44 46.6875 85.706 47.2662 86.238C47.8542 86.7607 48.1482 87.554 48.1482 88.618V93H46.4962V92.09C46.2815 92.4167 45.9735 92.6687 45.5722 92.846C45.1802 93.014 44.7042 93.098 44.1442 93.098C43.5842 93.098 43.0942 93.0047 42.6742 92.818C42.2542 92.622 41.9275 92.356 41.6942 92.02C41.4702 91.6747 41.3582 91.2873 41.3582 90.858C41.3582 90.186 41.6055 89.6493 42.1002 89.248C42.6042 88.8373 43.3929 88.632 44.4662 88.632H46.3982V88.52C46.3982 87.9973 46.2395 87.596 45.9222 87.316C45.6142 87.036 45.1522 86.896 44.5362 86.896C44.1162 86.896 43.7009 86.9613 43.2902 87.092C42.8889 87.2227 42.5482 87.4047 42.2682 87.638L41.5822 86.364C41.9742 86.0653 42.4455 85.8367 42.9962 85.678C43.5469 85.5193 44.1302 85.44 44.7462 85.44ZM44.5082 91.824C44.9469 91.824 45.3342 91.726 45.6702 91.53C46.0155 91.3247 46.2582 91.0353 46.3982 90.662V89.794H44.5922C43.5842 89.794 43.0802 90.1253 43.0802 90.788C43.0802 91.1053 43.2062 91.3573 43.4582 91.544C43.7102 91.7307 44.0602 91.824 44.5082 91.824ZM54.8881 92.594C54.6828 92.762 54.4308 92.888 54.1321 92.972C53.8428 93.056 53.5348 93.098 53.2081 93.098C52.3868 93.098 51.7521 92.8833 51.3041 92.454C50.8561 92.0247 50.6321 91.3993 50.6321 90.578V86.98H49.4001V85.58H50.6321V83.872H52.3821V85.58H54.3841V86.98H52.3821V90.536C52.3821 90.9 52.4708 91.18 52.6481 91.376C52.8254 91.5627 53.0821 91.656 53.4181 91.656C53.8101 91.656 54.1368 91.5533 54.3981 91.348L54.8881 92.594ZM59.4416 93.098C58.6856 93.098 58.0043 92.9347 57.3976 92.608C56.7909 92.2813 56.3149 91.8287 55.9696 91.25C55.6336 90.662 55.4656 89.9993 55.4656 89.262C55.4656 88.5247 55.6336 87.8667 55.9696 87.288C56.3149 86.7093 56.7909 86.2567 57.3976 85.93C58.0043 85.6033 58.6856 85.44 59.4416 85.44C60.2069 85.44 60.8929 85.6033 61.4996 85.93C62.1063 86.2567 62.5776 86.7093 62.9136 87.288C63.2589 87.8667 63.4316 88.5247 63.4316 89.262C63.4316 89.9993 63.2589 90.662 62.9136 91.25C62.5776 91.8287 62.1063 92.2813 61.4996 92.608C60.8929 92.9347 60.2069 93.098 59.4416 93.098ZM59.4416 91.6C60.0856 91.6 60.6176 91.3853 61.0376 90.956C61.4576 90.5267 61.6676 89.962 61.6676 89.262C61.6676 88.562 61.4576 87.9973 61.0376 87.568C60.6176 87.1387 60.0856 86.924 59.4416 86.924C58.7976 86.924 58.2656 87.1387 57.8456 87.568C57.4349 87.9973 57.2296 88.562 57.2296 89.262C57.2296 89.962 57.4349 90.5267 57.8456 90.956C58.2656 91.3853 58.7976 91.6 59.4416 91.6ZM66.771 86.616C67.275 85.832 68.1617 85.44 69.431 85.44V87.106C69.2817 87.078 69.1464 87.064 69.025 87.064C68.3437 87.064 67.8117 87.2647 67.429 87.666C67.0464 88.058 66.855 88.6273 66.855 89.374V93H65.105V85.524H66.771V86.616Z" fill="#545454"/>
</svg>
