<svg width="32" height="32" viewBox="0 0 32 32" fill="none" xmlns="http://www.w3.org/2000/svg">
<path d="M31 11.44C30.9813 8.79715 29.3619 6.42958 26.9056 5.45408C24.4493 4.47858 21.6468 5.09004 19.82 7.00002H12.18C10.3532 5.09004 7.55072 4.47858 5.0944 5.45408C2.63808 6.42958 1.01866 8.79715 1 11.44C0.376096 15.4407 0.041894 19.4812 0 23.53C0 25.95 1 27.53 2.92 27.89C3.2754 27.9628 3.63722 27.9997 4 28C5.76476 28.0328 7.33152 26.8761 7.82 25.18C8.21 24.08 8.91 22.56 9.34 21.64C10.416 22.1298 11.6536 22.1185 12.7204 21.6092C13.7873 21.0999 14.5743 20.1447 14.87 19H17.13C17.4263 20.142 18.2116 21.0949 19.276 21.6039C20.3403 22.1129 21.575 22.1262 22.65 21.64C23.08 22.55 23.78 24.07 24.17 25.18C24.6594 26.8798 26.2316 28.0373 28 28C28.3661 28.0004 28.7313 27.9635 29.09 27.89C31 27.5 32 25.95 32 23.53C31.9581 19.4812 31.6239 15.4407 31 11.44ZM6.89 24.85C6.67221 25.629 6.1491 26.287 5.43931 26.6749C4.72952 27.0627 3.89319 27.1475 3.12 26.91C1.37 26.54 1 24.87 1 23.53C1.02401 20.4272 1.23103 17.3285 1.62 14.25C2.60846 16.3766 4.66278 17.8085 7 18C7.00379 19.2102 7.55528 20.3536 8.5 21.11C8 22.13 7.3 23.68 6.89 24.85ZM11 21C9.34315 21 8 19.6569 8 18C7.98932 17.8569 7.98932 17.7132 8 17.57V17H7.5C4.97666 17.0001 2.77697 15.2831 2.16438 12.8353C1.55178 10.3874 2.68346 7.83672 4.9094 6.64825C7.13533 5.45979 9.88444 5.93846 11.5777 7.80933C13.2709 9.6802 13.4739 12.4633 12.07 14.56L11.75 15L12.28 15.25C13.5979 15.8231 14.3243 17.2503 14.012 18.6531C13.6998 20.0558 12.4366 21.0401 11 21ZM15 18C14.9987 16.6475 14.314 15.3872 13.18 14.65C14.3492 12.5694 14.2801 10.0144 13 8.00002H19C17.7074 10.0069 17.6228 12.562 18.78 14.65C17.6612 15.3964 16.9924 16.6551 17 18H15ZM18 18C18.0031 16.8378 18.6771 15.782 19.73 15.29L20.25 15L19.93 14.52C18.5466 12.4143 18.7708 9.63791 20.4742 7.78152C22.1776 5.92513 24.9245 5.46351 27.1412 6.66116C29.3578 7.85881 30.4772 10.4094 29.858 12.8516C29.2389 15.2939 27.0395 17.0031 24.52 17H23.88L24 17.57C24.0107 17.7132 24.0107 17.8569 24 18C24 19.6569 22.6569 21 21 21C19.3431 21 18 19.6569 18 18ZM28.88 26.91C28.1068 27.1475 27.2705 27.0627 26.5607 26.6749C25.8509 26.287 25.3278 25.629 25.11 24.85C24.7 23.68 24 22.13 23.5 21.11C24.4447 20.3536 24.9962 19.2102 25 18C27.3335 17.8144 29.3877 16.3902 30.38 14.27C30.768 17.3419 30.975 20.4339 31 23.53C31 24.87 30.63 26.54 28.88 26.91Z" fill="white"/>
<path d="M9 13H11V10H9V8H6V10H4V13H6V15H9V13ZM8 14H7V12H5V11H7V9H8V11H10V12H8V14Z" fill="white"/>
<path d="M24.5 10C25.3284 10 26 9.32843 26 8.5C26 7.67157 25.3284 7 24.5 7C23.6716 7 23 7.67157 23 8.5C23 9.32843 23.6716 10 24.5 10ZM24.5 8C24.7761 8 25 8.22386 25 8.5C25 8.77614 24.7761 9 24.5 9C24.2239 9 24 8.77614 24 8.5C24 8.22386 24.2239 8 24.5 8Z" fill="white"/>
<path d="M24.5 16C25.3284 16 26 15.3284 26 14.5C26 13.6716 25.3284 13 24.5 13C23.6716 13 23 13.6716 23 14.5C23 15.3284 23.6716 16 24.5 16ZM24.5 14C24.7761 14 25 14.2239 25 14.5C25 14.7761 24.7761 15 24.5 15C24.2239 15 24 14.7761 24 14.5C24 14.2239 24.2239 14 24.5 14Z" fill="white"/>
<path d="M21.5 13C22.3284 13 23 12.3284 23 11.5C23 10.6716 22.3284 10 21.5 10C20.6716 10 20 10.6716 20 11.5C20 12.3284 20.6716 13 21.5 13ZM21.5 11C21.7761 11 22 11.2239 22 11.5C22 11.7761 21.7761 12 21.5 12C21.2239 12 21 11.7761 21 11.5C21 11.2239 21.2239 11 21.5 11Z" fill="white"/>
<path d="M27.5 13C28.3284 13 29 12.3284 29 11.5C29 10.6716 28.3284 10 27.5 10C26.6716 10 26 10.6716 26 11.5C26 12.3284 26.6716 13 27.5 13ZM27.5 11C27.7761 11 28 11.2239 28 11.5C28 11.7761 27.7761 12 27.5 12C27.2239 12 27 11.7761 27 11.5C27 11.2239 27.2239 11 27.5 11Z" fill="white"/>
<path d="M11 16C9.89543 16 9 16.8954 9 18C9 19.1046 9.89543 20 11 20C12.1046 20 13 19.1046 13 18C13 16.8954 12.1046 16 11 16ZM11 19C10.4477 19 10 18.5523 10 18C10 17.4477 10.4477 17 11 17C11.5523 17 12 17.4477 12 18C12 18.5523 11.5523 19 11 19Z" fill="white"/>
<path d="M21 16C19.8954 16 19 16.8954 19 18C19 19.1046 19.8954 20 21 20C22.1046 20 23 19.1046 23 18C23 16.8954 22.1046 16 21 16ZM21 19C20.4477 19 20 18.5523 20 18C20 17.4477 20.4477 17 21 17C21.5523 17 22 17.4477 22 18C22 18.5523 21.5523 19 21 19Z" fill="white"/>
</svg>
