<svg width="56" height="79" viewBox="0 0 56 79" fill="none" xmlns="http://www.w3.org/2000/svg">
<circle cx="28" cy="28" r="22" fill="#C4C4C4" fill-opacity="0.4"/>
<path d="M17 15L19.2768 42L29.5 45L39.7196 42.0019L42 15H17Z" fill="#2196F3"/>
<path d="M37.1324 23.8294L36.8449 27.2213L35.977 37.3894L29.5002 39.27L29.4949 39.2719L23.0217 37.3894L22.5699 32.0719H25.7413L25.977 34.83L29.4967 35.8275L29.4984 35.8256L33.0234 34.8281L33.5038 30.2325L22.4181 30.2644L22.1038 27.1219L33.7699 26.9775L34.0056 23.6138L21.7913 23.6494L21.5859 20.52H29.5002H37.4145L37.1324 23.8294Z" fill="#FAFAFA"/>
<path d="M2.62338 16.1667C0.0383901 21.7102 -0.660256 27.9477 0.634237 33.9258C1.92873 39.9039 5.14514 45.2936 9.79184 49.2712C14.4385 53.2488 20.2599 55.5954 26.3661 55.9523C32.4723 56.3092 38.5274 54.6568 43.6059 51.2477C48.6843 47.8386 52.5068 42.8603 54.489 37.0738C56.4712 31.2873 56.504 25.0109 54.5825 19.2039C52.661 13.3969 48.8908 8.37892 43.8483 4.91685C38.8058 1.45478 32.7683 -0.260865 26.6587 0.0321455L26.864 4.31213C32.0386 4.06396 37.1521 5.51706 41.423 8.44931C45.6938 11.3816 48.887 15.6317 50.5145 20.55C52.142 25.4683 52.1142 30.7842 50.4353 35.6852C48.7565 40.5862 45.519 44.8027 41.2177 47.6901C36.9163 50.5775 31.7879 51.977 26.6161 51.6747C21.4444 51.3724 16.5139 49.3849 12.5783 46.016C8.64267 42.6471 5.91847 38.0822 4.82208 33.019C3.72569 27.9557 4.31742 22.6728 6.50682 17.9776L2.62338 16.1667Z" fill="#3B5999"/>
<path d="M13.9799 75.14C12.9906 75.14 12.0946 74.9253 11.2919 74.496C10.4986 74.0573 9.87326 73.4553 9.41593 72.69C8.96793 71.9247 8.74393 71.0613 8.74393 70.1C8.74393 69.1387 8.9726 68.2753 9.42993 67.51C9.88726 66.7447 10.5126 66.1473 11.3059 65.718C12.1086 65.2793 13.0046 65.06 13.9939 65.06C14.7966 65.06 15.5293 65.2 16.1919 65.48C16.8546 65.76 17.4146 66.166 17.8719 66.698L16.6959 67.804C15.9866 67.0387 15.1139 66.656 14.0779 66.656C13.4059 66.656 12.8039 66.8053 12.2719 67.104C11.7399 67.3933 11.3246 67.7993 11.0259 68.322C10.7273 68.8447 10.5779 69.4373 10.5779 70.1C10.5779 70.7627 10.7273 71.3553 11.0259 71.878C11.3246 72.4007 11.7399 72.8113 12.2719 73.11C12.8039 73.3993 13.4059 73.544 14.0779 73.544C15.1139 73.544 15.9866 73.1567 16.6959 72.382L17.8719 73.502C17.4146 74.034 16.8499 74.44 16.1779 74.72C15.5153 75 14.7826 75.14 13.9799 75.14ZM22.5991 75.14C21.8431 75.14 21.1105 75.0327 20.4011 74.818C19.7011 74.6033 19.1458 74.3187 18.7351 73.964L19.3651 72.55C19.7665 72.8673 20.2565 73.1287 20.8351 73.334C21.4231 73.53 22.0111 73.628 22.5991 73.628C23.3271 73.628 23.8685 73.5113 24.2231 73.278C24.5871 73.0447 24.7691 72.7367 24.7691 72.354C24.7691 72.074 24.6665 71.8453 24.4611 71.668C24.2651 71.4813 24.0131 71.3367 23.7051 71.234C23.3971 71.1313 22.9771 71.0147 22.4451 70.884C21.6985 70.7067 21.0918 70.5293 20.6251 70.352C20.1678 70.1747 19.7711 69.8993 19.4351 69.526C19.1085 69.1433 18.9451 68.63 18.9451 67.986C18.9451 67.4447 19.0898 66.9547 19.3791 66.516C19.6778 66.068 20.1211 65.7133 20.7091 65.452C21.3065 65.1907 22.0345 65.06 22.8931 65.06C23.4905 65.06 24.0785 65.1347 24.6571 65.284C25.2358 65.4333 25.7351 65.648 26.1551 65.928L25.5811 67.342C25.1518 67.09 24.7038 66.8987 24.2371 66.768C23.7705 66.6373 23.3178 66.572 22.8791 66.572C22.1605 66.572 21.6238 66.6933 21.2691 66.936C20.9238 67.1787 20.7511 67.5007 20.7511 67.902C20.7511 68.182 20.8491 68.4107 21.0451 68.588C21.2505 68.7653 21.5071 68.9053 21.8151 69.008C22.1231 69.1107 22.5431 69.2273 23.0751 69.358C23.8031 69.526 24.4005 69.7033 24.8671 69.89C25.3338 70.0673 25.7305 70.3427 26.0571 70.716C26.3931 71.0893 26.5611 71.5933 26.5611 72.228C26.5611 72.7693 26.4118 73.2593 26.1131 73.698C25.8238 74.1367 25.3805 74.4867 24.7831 74.748C24.1858 75.0093 23.4578 75.14 22.5991 75.14ZM31.4038 75.14C30.6478 75.14 29.9151 75.0327 29.2058 74.818C28.5058 74.6033 27.9505 74.3187 27.5398 73.964L28.1698 72.55C28.5711 72.8673 29.0611 73.1287 29.6398 73.334C30.2278 73.53 30.8158 73.628 31.4038 73.628C32.1318 73.628 32.6731 73.5113 33.0278 73.278C33.3918 73.0447 33.5738 72.7367 33.5738 72.354C33.5738 72.074 33.4711 71.8453 33.2658 71.668C33.0698 71.4813 32.8178 71.3367 32.5098 71.234C32.2018 71.1313 31.7818 71.0147 31.2498 70.884C30.5031 70.7067 29.8965 70.5293 29.4298 70.352C28.9725 70.1747 28.5758 69.8993 28.2398 69.526C27.9131 69.1433 27.7498 68.63 27.7498 67.986C27.7498 67.4447 27.8945 66.9547 28.1838 66.516C28.4825 66.068 28.9258 65.7133 29.5138 65.452C30.1111 65.1907 30.8391 65.06 31.6978 65.06C32.2951 65.06 32.8831 65.1347 33.4618 65.284C34.0405 65.4333 34.5398 65.648 34.9598 65.928L34.3858 67.342C33.9565 67.09 33.5085 66.8987 33.0418 66.768C32.5751 66.6373 32.1225 66.572 31.6838 66.572C30.9651 66.572 30.4285 66.6933 30.0738 66.936C29.7285 67.1787 29.5558 67.5007 29.5558 67.902C29.5558 68.182 29.6538 68.4107 29.8498 68.588C30.0551 68.7653 30.3118 68.9053 30.6198 69.008C30.9278 69.1107 31.3478 69.2273 31.8798 69.358C32.6078 69.526 33.2051 69.7033 33.6718 69.89C34.1385 70.0673 34.5351 70.3427 34.8618 70.716C35.1978 71.0893 35.3658 71.5933 35.3658 72.228C35.3658 72.7693 35.2165 73.2593 34.9178 73.698C34.6285 74.1367 34.1851 74.4867 33.5878 74.748C32.9905 75.0093 32.2625 75.14 31.4038 75.14ZM44.5116 69.246C45.417 69.358 46.1076 69.666 46.5836 70.17C47.0596 70.674 47.2976 71.304 47.2976 72.06C47.2976 72.6293 47.153 73.1473 46.8636 73.614C46.5743 74.0807 46.1356 74.454 45.5476 74.734C44.969 75.0047 44.2596 75.14 43.4196 75.14C42.7196 75.14 42.043 75.042 41.3896 74.846C40.7456 74.6407 40.195 74.3607 39.7376 74.006L40.5216 72.592C40.8763 72.8907 41.3056 73.1287 41.8096 73.306C42.323 73.474 42.8503 73.558 43.3916 73.558C44.0356 73.558 44.5396 73.4273 44.9036 73.166C45.277 72.8953 45.4636 72.5313 45.4636 72.074C45.4636 71.6167 45.2863 71.262 44.9316 71.01C44.5863 70.7487 44.0543 70.618 43.3356 70.618H42.4396V69.372L44.6656 66.726H40.2136V65.2H46.8916V66.418L44.5116 69.246Z" fill="#545454"/>
</svg>
