<svg width="294" height="24" viewBox="0 0 294 24" fill="none" xmlns="http://www.w3.org/2000/svg">
<rect width="154" height="24" rx="5" fill="#545454"/>
<path d="M38.666 15.474V17H31.316V7.2H38.47V8.726H33.136V11.274H37.868V12.772H33.136V15.474H38.666ZM40.6949 7.2H44.9789C46.0242 7.2 46.9529 7.40533 47.7649 7.816C48.5769 8.21733 49.2069 8.79133 49.6549 9.538C50.1029 10.2753 50.3269 11.1293 50.3269 12.1C50.3269 13.0707 50.1029 13.9293 49.6549 14.676C49.2069 15.4133 48.5769 15.9873 47.7649 16.398C46.9529 16.7993 46.0242 17 44.9789 17H40.6949V7.2ZM44.8949 15.46C45.6136 15.46 46.2436 15.3247 46.7849 15.054C47.3356 14.774 47.7556 14.382 48.0449 13.878C48.3436 13.3647 48.4929 12.772 48.4929 12.1C48.4929 11.428 48.3436 10.84 48.0449 10.336C47.7556 9.82267 47.3356 9.43067 46.7849 9.16C46.2436 8.88 45.6136 8.74 44.8949 8.74H42.5149V15.46H44.8949ZM56.4753 17.14C55.122 17.14 54.0673 16.762 53.3113 16.006C52.5553 15.2407 52.1773 14.1487 52.1773 12.73V7.2H53.9973V12.66C53.9973 14.5827 54.828 15.544 56.4893 15.544C58.1413 15.544 58.9673 14.5827 58.9673 12.66V7.2H60.7593V12.73C60.7593 14.1487 60.3813 15.2407 59.6253 16.006C58.8786 16.762 57.8286 17.14 56.4753 17.14ZM67.8442 17.14C66.8549 17.14 65.9589 16.9253 65.1562 16.496C64.3629 16.0573 63.7375 15.4553 63.2802 14.69C62.8322 13.9247 62.6082 13.0613 62.6082 12.1C62.6082 11.1387 62.8369 10.2753 63.2942 9.51C63.7515 8.74467 64.3769 8.14733 65.1702 7.718C65.9729 7.27933 66.8689 7.06 67.8582 7.06C68.6609 7.06 69.3935 7.2 70.0562 7.48C70.7189 7.76 71.2789 8.166 71.7362 8.698L70.5602 9.804C69.8509 9.03867 68.9782 8.656 67.9422 8.656C67.2702 8.656 66.6682 8.80533 66.1362 9.104C65.6042 9.39333 65.1889 9.79933 64.8902 10.322C64.5915 10.8447 64.4422 11.4373 64.4422 12.1C64.4422 12.7627 64.5915 13.3553 64.8902 13.878C65.1889 14.4007 65.6042 14.8113 66.1362 15.11C66.6682 15.3993 67.2702 15.544 67.9422 15.544C68.9782 15.544 69.8509 15.1567 70.5602 14.382L71.7362 15.502C71.2789 16.034 70.7142 16.44 70.0422 16.72C69.3795 17 68.6469 17.14 67.8442 17.14ZM79.631 14.732H74.731L73.765 17H71.889L76.299 7.2H78.091L82.515 17H80.611L79.631 14.732ZM79.029 13.304L77.181 9.02L75.347 13.304H79.029ZM85.2571 8.74H82.0091V7.2H90.3251V8.74H87.0771V17H85.2571V8.74ZM91.691 7.2H93.511V17H91.691V7.2ZM100.74 17.14C99.741 17.14 98.8404 16.9253 98.0377 16.496C97.235 16.0573 96.605 15.4553 96.1477 14.69C95.6904 13.9153 95.4617 13.052 95.4617 12.1C95.4617 11.148 95.6904 10.2893 96.1477 9.524C96.605 8.74933 97.235 8.14733 98.0377 7.718C98.8404 7.27933 99.741 7.06 100.74 7.06C101.738 7.06 102.639 7.27933 103.442 7.718C104.244 8.14733 104.874 8.74467 105.332 9.51C105.789 10.2753 106.018 11.1387 106.018 12.1C106.018 13.0613 105.789 13.9247 105.332 14.69C104.874 15.4553 104.244 16.0573 103.442 16.496C102.639 16.9253 101.738 17.14 100.74 17.14ZM100.74 15.544C101.393 15.544 101.981 15.3993 102.504 15.11C103.026 14.8113 103.437 14.4007 103.736 13.878C104.034 13.346 104.184 12.7533 104.184 12.1C104.184 11.4467 104.034 10.8587 103.736 10.336C103.437 9.804 103.026 9.39333 102.504 9.104C101.981 8.80533 101.393 8.656 100.74 8.656C100.086 8.656 99.4984 8.80533 98.9757 9.104C98.453 9.39333 98.0424 9.804 97.7437 10.336C97.445 10.8587 97.2957 11.4467 97.2957 12.1C97.2957 12.7533 97.445 13.346 97.7437 13.878C98.0424 14.4007 98.453 14.8113 98.9757 15.11C99.4984 15.3993 100.086 15.544 100.74 15.544ZM116.655 7.2V17H115.157L109.753 10.364V17H107.947V7.2H109.445L114.849 13.836V7.2H116.655Z" fill="white"/>
<line x1="153" y1="11.5" x2="294" y2="11.5" stroke="#545454"/>
</svg>
