<svg width="294" height="24" viewBox="0 0 294 24" fill="none" xmlns="http://www.w3.org/2000/svg">
<rect width="154" height="24" rx="5" fill="#545454"/>
<path d="M38.666 15.474V17H31.316V7.2H38.47V8.726H33.136V11.274H37.868V12.772H33.136V15.474H38.666ZM46.7595 17L44.0995 13.276L41.4675 17H39.3955L43.0355 12.002L39.5915 7.2H41.6495L44.1555 10.686L46.6335 7.2H48.6075L45.1775 11.932L48.8595 17H46.7595ZM53.9964 7.2C54.8458 7.2 55.5831 7.34 56.2084 7.62C56.8431 7.9 57.3284 8.30133 57.6644 8.824C58.0004 9.34667 58.1684 9.96733 58.1684 10.686C58.1684 11.3953 58.0004 12.016 57.6644 12.548C57.3284 13.0707 56.8431 13.472 56.2084 13.752C55.5831 14.032 54.8458 14.172 53.9964 14.172H51.7844V17H49.9644V7.2H53.9964ZM53.9124 12.632C54.7058 12.632 55.3078 12.464 55.7184 12.128C56.1291 11.792 56.3344 11.3113 56.3344 10.686C56.3344 10.0607 56.1291 9.58 55.7184 9.244C55.3078 8.908 54.7058 8.74 53.9124 8.74H51.7844V12.632H53.9124ZM67.3359 15.474V17H59.9859V7.2H67.1399V8.726H61.8059V11.274H66.5379V12.772H61.8059V15.474H67.3359ZM75.7768 17L73.7748 14.13C73.6908 14.1393 73.5648 14.144 73.3968 14.144H71.1848V17H69.3648V7.2H73.3968C74.2462 7.2 74.9835 7.34 75.6088 7.62C76.2435 7.9 76.7288 8.30133 77.0648 8.824C77.4008 9.34667 77.5688 9.96733 77.5688 10.686C77.5688 11.4233 77.3868 12.058 77.0228 12.59C76.6682 13.122 76.1548 13.5187 75.4828 13.78L77.7368 17H75.7768ZM75.7348 10.686C75.7348 10.0607 75.5295 9.58 75.1188 9.244C74.7082 8.908 74.1062 8.74 73.3128 8.74H71.1848V12.646H73.3128C74.1062 12.646 74.7082 12.478 75.1188 12.142C75.5295 11.7967 75.7348 11.3113 75.7348 10.686ZM79.6051 7.2H81.4251V17H79.6051V7.2ZM91.4258 15.474V17H84.0758V7.2H91.2298V8.726H85.8958V11.274H90.6278V12.772H85.8958V15.474H91.4258ZM102.163 7.2V17H100.665L95.2607 10.364V17H93.4547V7.2H94.9527L100.357 13.836V7.2H102.163ZM109.325 17.14C108.335 17.14 107.439 16.9253 106.637 16.496C105.843 16.0573 105.218 15.4553 104.761 14.69C104.313 13.9247 104.089 13.0613 104.089 12.1C104.089 11.1387 104.317 10.2753 104.775 9.51C105.232 8.74467 105.857 8.14733 106.651 7.718C107.453 7.27933 108.349 7.06 109.339 7.06C110.141 7.06 110.874 7.2 111.537 7.48C112.199 7.76 112.759 8.166 113.217 8.698L112.041 9.804C111.331 9.03867 110.459 8.656 109.423 8.656C108.751 8.656 108.149 8.80533 107.617 9.104C107.085 9.39333 106.669 9.79933 106.371 10.322C106.072 10.8447 105.923 11.4373 105.923 12.1C105.923 12.7627 106.072 13.3553 106.371 13.878C106.669 14.4007 107.085 14.8113 107.617 15.11C108.149 15.3993 108.751 15.544 109.423 15.544C110.459 15.544 111.331 15.1567 112.041 14.382L113.217 15.502C112.759 16.034 112.195 16.44 111.523 16.72C110.86 17 110.127 17.14 109.325 17.14ZM122.311 15.474V17H114.961V7.2H122.115V8.726H116.781V11.274H121.513V12.772H116.781V15.474H122.311Z" fill="white"/>
<line x1="153" y1="11.5" x2="294" y2="11.5" stroke="#545454"/>
</svg>
