<svg width="56" height="93" viewBox="0 0 56 93" fill="none" xmlns="http://www.w3.org/2000/svg">
<circle cx="28" cy="28" r="22" fill="#C4C4C4" fill-opacity="0.4"/>
<g clip-path="url(#clip0_288_137)">
<path d="M23.001 45C25.7604 45 28 42.76 28 40V35H23.001C20.2415 35 18.002 37.24 18.002 40C18.002 42.76 20.2415 45 23.001 45Z" fill="#0ACF83"/>
<path d="M18.002 30C18.002 27.24 20.2415 25 23.001 25H28V35H23.001C20.2415 35 18.002 32.76 18.002 30Z" fill="#A259FF"/>
<path d="M18.01 20C18.01 17.24 20.2496 15 23.009 15H28.008V25H23.009C20.2496 25 18.01 22.76 18.01 20Z" fill="#F24E1E"/>
<path d="M28 15H32.999C35.7584 15 37.998 17.24 37.998 20C37.998 22.76 35.7584 25 32.999 25H28V15Z" fill="#FF7262"/>
<path d="M37.998 30C37.998 32.76 35.7584 35 32.999 35C30.2396 35 28 32.76 28 30C28 27.24 30.2396 25 32.999 25C35.7584 25 37.998 27.24 37.998 30Z" fill="#1ABCFE"/>
</g>
<path d="M28 56C35.4261 56 42.548 53.05 47.799 47.799C53.05 42.548 56 35.4261 56 28C56 20.5739 53.05 13.452 47.799 8.20101C42.548 2.94999 35.4261 1.44591e-06 28 0L28 4.2849C34.2896 4.2849 40.3217 6.78345 44.7691 11.2309C49.2166 15.6783 51.7151 21.7104 51.7151 28C51.7151 34.2896 49.2166 40.3217 44.7691 44.7691C40.3217 49.2166 34.2896 51.7151 28 51.7151L28 56Z" fill="#3B5999"/>
<path d="M9.136 80.726V83.708H13.868V85.248H9.136V89H7.316V79.2H14.47V80.726H9.136ZM15.9253 81.524H17.6753V89H15.9253V81.524ZM16.8073 80.292C16.49 80.292 16.224 80.194 16.0093 79.998C15.7947 79.7927 15.6873 79.5407 15.6873 79.242C15.6873 78.9433 15.7947 78.696 16.0093 78.5C16.224 78.2947 16.49 78.192 16.8073 78.192C17.1247 78.192 17.3907 78.29 17.6053 78.486C17.82 78.6727 17.9273 78.9107 17.9273 79.2C17.9273 79.508 17.82 79.7693 17.6053 79.984C17.4 80.1893 17.134 80.292 16.8073 80.292ZM27.3922 81.524V87.866C27.3922 90.498 26.0482 91.814 23.3602 91.814C22.6416 91.814 21.9602 91.7207 21.3162 91.534C20.6722 91.3567 20.1402 91.0953 19.7202 90.75L20.5042 89.434C20.8309 89.7047 21.2416 89.9193 21.7362 90.078C22.2402 90.246 22.7489 90.33 23.2622 90.33C24.0836 90.33 24.6856 90.1433 25.0682 89.77C25.4509 89.3967 25.6422 88.8273 25.6422 88.062V87.67C25.3436 87.9967 24.9796 88.244 24.5502 88.412C24.1209 88.58 23.6496 88.664 23.1362 88.664C22.4269 88.664 21.7829 88.5147 21.2042 88.216C20.6349 87.908 20.1822 87.4787 19.8462 86.928C19.5196 86.3773 19.3562 85.7473 19.3562 85.038C19.3562 84.3287 19.5196 83.7033 19.8462 83.162C20.1822 82.6113 20.6349 82.1867 21.2042 81.888C21.7829 81.5893 22.4269 81.44 23.1362 81.44C23.6776 81.44 24.1676 81.5287 24.6062 81.706C25.0542 81.8833 25.4276 82.154 25.7262 82.518V81.524H27.3922ZM23.4022 87.18C24.0649 87.18 24.6062 86.984 25.0262 86.592C25.4556 86.1907 25.6702 85.6727 25.6702 85.038C25.6702 84.4127 25.4556 83.904 25.0262 83.512C24.6062 83.12 24.0649 82.924 23.4022 82.924C22.7302 82.924 22.1796 83.12 21.7502 83.512C21.3302 83.904 21.1202 84.4127 21.1202 85.038C21.1202 85.6727 21.3302 86.1907 21.7502 86.592C22.1796 86.984 22.7302 87.18 23.4022 87.18ZM39.1289 81.44C40.0716 81.44 40.8183 81.7153 41.3689 82.266C41.9196 82.8073 42.1949 83.624 42.1949 84.716V89H40.4449V84.94C40.4449 84.2867 40.3003 83.7967 40.0109 83.47C39.7216 83.134 39.3063 82.966 38.7649 82.966C38.1769 82.966 37.7056 83.162 37.3509 83.554C36.9963 83.9367 36.8189 84.4873 36.8189 85.206V89H35.0689V84.94C35.0689 84.2867 34.9243 83.7967 34.6349 83.47C34.3456 83.134 33.9303 82.966 33.3889 82.966C32.7916 82.966 32.3156 83.1573 31.9609 83.54C31.6156 83.9227 31.4429 84.478 31.4429 85.206V89H29.6929V81.524H31.3589V82.476C31.6389 82.14 31.9889 81.8833 32.4089 81.706C32.8289 81.5287 33.2956 81.44 33.8089 81.44C34.3689 81.44 34.8636 81.5473 35.2929 81.762C35.7316 81.9673 36.0769 82.2753 36.3289 82.686C36.6369 82.294 37.0336 81.9907 37.5189 81.776C38.0043 81.552 38.5409 81.44 39.1289 81.44ZM47.2872 81.44C48.3885 81.44 49.2285 81.706 49.8072 82.238C50.3952 82.7607 50.6892 83.554 50.6892 84.618V89H49.0372V88.09C48.8225 88.4167 48.5145 88.6687 48.1132 88.846C47.7212 89.014 47.2452 89.098 46.6852 89.098C46.1252 89.098 45.6352 89.0047 45.2152 88.818C44.7952 88.622 44.4685 88.356 44.2352 88.02C44.0112 87.6747 43.8992 87.2873 43.8992 86.858C43.8992 86.186 44.1465 85.6493 44.6412 85.248C45.1452 84.8373 45.9339 84.632 47.0072 84.632H48.9392V84.52C48.9392 83.9973 48.7805 83.596 48.4632 83.316C48.1552 83.036 47.6932 82.896 47.0772 82.896C46.6572 82.896 46.2419 82.9613 45.8312 83.092C45.4299 83.2227 45.0892 83.4047 44.8092 83.638L44.1232 82.364C44.5152 82.0653 44.9865 81.8367 45.5372 81.678C46.0879 81.5193 46.6712 81.44 47.2872 81.44ZM47.0492 87.824C47.4879 87.824 47.8752 87.726 48.2112 87.53C48.5565 87.3247 48.7992 87.0353 48.9392 86.662V85.794H47.1332C46.1252 85.794 45.6212 86.1253 45.6212 86.788C45.6212 87.1053 45.7472 87.3573 45.9992 87.544C46.2512 87.7307 46.6012 87.824 47.0492 87.824Z" fill="#545454"/>
<defs>
<clipPath id="clip0_288_137">
<rect width="20" height="30" fill="white" transform="translate(18 15)"/>
</clipPath>
</defs>
</svg>
