<svg width="56" height="79" viewBox="0 0 56 79" fill="none" xmlns="http://www.w3.org/2000/svg">
<circle cx="28" cy="28" r="22" fill="#C4C4C4" fill-opacity="0.4"/>
<path d="M16 15L17.7573 41.256L28.5 45L39.2427 41.256L41 15H16Z" fill="#FF7816"/>
<path d="M36.3084 22.9688H24.0238L24.3221 27.3633H36.0101L35.2971 38.0038L28.5 40.4121L21.7028 38.0038L21.4708 34.4531H24.7865L24.8527 35.4199L28.5 36.703L32.1472 35.4199L32.4455 30.8789H21.2221L20.4595 19.4531H36.5404L36.3084 22.9688Z" fill="#ECECF1"/>
<path d="M8.20101 8.20101C3.62041 12.7816 0.769777 18.8088 0.134828 25.2555C-0.500122 31.7023 1.1199 38.1698 4.71885 43.556C8.31781 48.9422 13.673 52.9139 19.872 54.7943C26.071 56.6748 32.7303 56.3476 38.7151 53.8686C44.7 51.3896 49.6401 46.9121 52.6938 41.1991C55.7475 35.4861 56.7258 28.8909 55.462 22.5375C54.1982 16.184 50.7705 10.4653 45.763 6.35571C40.7555 2.24614 34.4779 4.89072e-07 28 0L28 4.2849C33.4866 4.2849 38.8035 6.18731 43.0447 9.66798C47.2859 13.1487 50.189 17.9922 51.2594 23.3734C52.3298 28.7546 51.5012 34.3405 48.9149 39.1792C46.3285 44.018 42.1443 47.8103 37.0754 49.9099C32.0064 52.0095 26.3662 52.2866 21.1159 50.6939C15.8655 49.1013 11.3298 45.7374 8.28162 41.1754C5.23342 36.6135 3.86131 31.1357 4.3991 25.6755C4.93688 20.2153 7.35127 15.1105 11.2309 11.2309L8.20101 8.20101Z" fill="#3B5999"/>
<path d="M11.024 65.2V75H9.204V70.8H4.136V75H2.316V65.2H4.136V69.246H9.204V65.2H11.024ZM15.638 66.74H12.39V65.2H20.706V66.74H17.458V75H15.638V66.74ZM31.0739 75L31.0599 68.504L27.8399 73.88H27.0279L23.8079 68.588V75H22.0719V65.2H23.5699L27.4619 71.696L31.2839 65.2H32.7819L32.7959 75H31.0739ZM35.443 65.2H37.263V73.46H42.387V75H35.443V65.2ZM50.059 68.994C51.4403 68.994 52.4623 69.2647 53.125 69.806C53.7876 70.338 54.119 71.066 54.119 71.99C54.119 72.578 53.9743 73.11 53.685 73.586C53.3956 74.062 52.9616 74.44 52.383 74.72C51.8043 75 51.0903 75.14 50.241 75.14C49.541 75.14 48.8643 75.042 48.211 74.846C47.5576 74.6407 47.007 74.3607 46.559 74.006L47.329 72.592C47.693 72.8907 48.127 73.1287 48.631 73.306C49.1443 73.474 49.6716 73.558 50.213 73.558C50.857 73.558 51.361 73.4273 51.725 73.166C52.0983 72.8953 52.285 72.5267 52.285 72.06C52.285 71.556 52.0843 71.178 51.683 70.926C51.291 70.6647 50.6143 70.534 49.653 70.534H47.287L47.791 65.2H53.545V66.726H49.331L49.121 68.994H50.059Z" fill="#545454"/>
</svg>
