<svg width="294" height="24" viewBox="0 0 294 24" fill="none" xmlns="http://www.w3.org/2000/svg">
<rect width="154" height="24" rx="5" fill="#545454"/>
<path d="M40.318 17L40.304 10.504L37.084 15.88H36.272L33.052 10.588V17H31.316V7.2H32.814L36.706 13.696L40.528 7.2H42.026L42.04 17H40.318ZM48.9151 13.542V17H47.0951V13.57L43.2451 7.2H45.1911L48.0611 11.974L50.9591 7.2H52.7511L48.9151 13.542ZM60.8501 17.14C60.0941 17.14 59.3614 17.0327 58.6521 16.818C57.9521 16.6033 57.3968 16.3187 56.9861 15.964L57.6161 14.55C58.0174 14.8673 58.5074 15.1287 59.0861 15.334C59.6741 15.53 60.2621 15.628 60.8501 15.628C61.5781 15.628 62.1194 15.5113 62.4741 15.278C62.8381 15.0447 63.0201 14.7367 63.0201 14.354C63.0201 14.074 62.9174 13.8453 62.7121 13.668C62.5161 13.4813 62.2641 13.3367 61.9561 13.234C61.6481 13.1313 61.2281 13.0147 60.6961 12.884C59.9494 12.7067 59.3428 12.5293 58.8761 12.352C58.4188 12.1747 58.0221 11.8993 57.6861 11.526C57.3594 11.1433 57.1961 10.63 57.1961 9.986C57.1961 9.44467 57.3408 8.95467 57.6301 8.516C57.9288 8.068 58.3721 7.71333 58.9601 7.452C59.5574 7.19067 60.2854 7.06 61.1441 7.06C61.7414 7.06 62.3294 7.13467 62.9081 7.284C63.4868 7.43333 63.9861 7.648 64.4061 7.928L63.8321 9.342C63.4028 9.09 62.9548 8.89867 62.4881 8.768C62.0214 8.63733 61.5688 8.572 61.1301 8.572C60.4114 8.572 59.8748 8.69333 59.5201 8.936C59.1748 9.17867 59.0021 9.50067 59.0021 9.902C59.0021 10.182 59.1001 10.4107 59.2961 10.588C59.5014 10.7653 59.7581 10.9053 60.0661 11.008C60.3741 11.1107 60.7941 11.2273 61.3261 11.358C62.0541 11.526 62.6514 11.7033 63.1181 11.89C63.5848 12.0673 63.9814 12.3427 64.3081 12.716C64.6441 13.0893 64.8121 13.5933 64.8121 14.228C64.8121 14.7693 64.6628 15.2593 64.3641 15.698C64.0748 16.1367 63.6314 16.4867 63.0341 16.748C62.4368 17.0093 61.7088 17.14 60.8501 17.14ZM69.9908 12.898L68.4368 14.494V17H66.6168V7.2H68.4368V12.226L73.2808 7.2H75.3248L71.2088 11.582L75.5768 17H73.4488L69.9908 12.898ZM76.816 7.2H78.636V17H76.816V7.2ZM81.2867 7.2H83.1067V15.46H88.2307V17H81.2867V7.2ZM89.6676 7.2H91.4876V15.46H96.6116V17H89.6676V7.2ZM101.018 17.14C100.262 17.14 99.5294 17.0327 98.8201 16.818C98.1201 16.6033 97.5647 16.3187 97.1541 15.964L97.7841 14.55C98.1854 14.8673 98.6754 15.1287 99.2541 15.334C99.8421 15.53 100.43 15.628 101.018 15.628C101.746 15.628 102.287 15.5113 102.642 15.278C103.006 15.0447 103.188 14.7367 103.188 14.354C103.188 14.074 103.085 13.8453 102.88 13.668C102.684 13.4813 102.432 13.3367 102.124 13.234C101.816 13.1313 101.396 13.0147 100.864 12.884C100.117 12.7067 99.5107 12.5293 99.0441 12.352C98.5867 12.1747 98.1901 11.8993 97.8541 11.526C97.5274 11.1433 97.3641 10.63 97.3641 9.986C97.3641 9.44467 97.5087 8.95467 97.7981 8.516C98.0967 8.068 98.5401 7.71333 99.1281 7.452C99.7254 7.19067 100.453 7.06 101.312 7.06C101.909 7.06 102.497 7.13467 103.076 7.284C103.655 7.43333 104.154 7.648 104.574 7.928L104 9.342C103.571 9.09 103.123 8.89867 102.656 8.768C102.189 8.63733 101.737 8.572 101.298 8.572C100.579 8.572 100.043 8.69333 99.6881 8.936C99.3427 9.17867 99.1701 9.50067 99.1701 9.902C99.1701 10.182 99.2681 10.4107 99.4641 10.588C99.6694 10.7653 99.9261 10.9053 100.234 11.008C100.542 11.1107 100.962 11.2273 101.494 11.358C102.222 11.526 102.819 11.7033 103.286 11.89C103.753 12.0673 104.149 12.3427 104.476 12.716C104.812 13.0893 104.98 13.5933 104.98 14.228C104.98 14.7693 104.831 15.2593 104.532 15.698C104.243 16.1367 103.799 16.4867 103.202 16.748C102.605 17.0093 101.877 17.14 101.018 17.14Z" fill="white"/>
<line x1="153" y1="11.5" x2="294" y2="11.5" stroke="#545454"/>
</svg>
