<svg width="294" height="24" viewBox="0 0 294 24" fill="none" xmlns="http://www.w3.org/2000/svg">
<rect width="154" height="24" rx="5" fill="#545454"/>
<path d="M27.894 17.14C26.8953 17.14 25.9947 16.9253 25.192 16.496C24.3893 16.0573 23.7593 15.4553 23.302 14.69C22.8447 13.9153 22.616 13.052 22.616 12.1C22.616 11.148 22.8447 10.2893 23.302 9.524C23.7593 8.74933 24.3893 8.14733 25.192 7.718C25.9947 7.27933 26.8953 7.06 27.894 7.06C28.8927 7.06 29.7933 7.27933 30.596 7.718C31.3987 8.14733 32.0287 8.74467 32.486 9.51C32.9433 10.2753 33.172 11.1387 33.172 12.1C33.172 13.0613 32.9433 13.9247 32.486 14.69C32.0287 15.4553 31.3987 16.0573 30.596 16.496C29.7933 16.9253 28.8927 17.14 27.894 17.14ZM27.894 15.544C28.5473 15.544 29.1353 15.3993 29.658 15.11C30.1807 14.8113 30.5913 14.4007 30.89 13.878C31.1887 13.346 31.338 12.7533 31.338 12.1C31.338 11.4467 31.1887 10.8587 30.89 10.336C30.5913 9.804 30.1807 9.39333 29.658 9.104C29.1353 8.80533 28.5473 8.656 27.894 8.656C27.2407 8.656 26.6527 8.80533 26.13 9.104C25.6073 9.39333 25.1967 9.804 24.898 10.336C24.5993 10.8587 24.45 11.4467 24.45 12.1C24.45 12.7533 24.5993 13.346 24.898 13.878C25.1967 14.4007 25.6073 14.8113 26.13 15.11C26.6527 15.3993 27.2407 15.544 27.894 15.544ZM36.9524 8.74H33.7044V7.2H42.0204V8.74H38.7724V17H36.9524V8.74ZM52.0943 7.2V17H50.2743V12.8H45.2063V17H43.3863V7.2H45.2063V11.246H50.2743V7.2H52.0943ZM62.0703 15.474V17H54.7203V7.2H61.8743V8.726H56.5403V11.274H61.2723V12.772H56.5403V15.474H62.0703ZM70.5112 17L68.5092 14.13C68.4252 14.1393 68.2992 14.144 68.1312 14.144H65.9192V17H64.0992V7.2H68.1312C68.9805 7.2 69.7179 7.34 70.3432 7.62C70.9779 7.9 71.4632 8.30133 71.7992 8.824C72.1352 9.34667 72.3032 9.96733 72.3032 10.686C72.3032 11.4233 72.1212 12.058 71.7572 12.59C71.4025 13.122 70.8892 13.5187 70.2172 13.78L72.4712 17H70.5112ZM70.4692 10.686C70.4692 10.0607 70.2639 9.58 69.8532 9.244C69.4425 8.908 68.8405 8.74 68.0472 8.74H65.9192V12.646H68.0472C68.8405 12.646 69.4425 12.478 69.8532 12.142C70.2639 11.7967 70.4692 11.3113 70.4692 10.686ZM85.1157 17.14C84.3597 17.14 83.6271 17.0327 82.9177 16.818C82.2177 16.6033 81.6624 16.3187 81.2517 15.964L81.8817 14.55C82.2831 14.8673 82.7731 15.1287 83.3517 15.334C83.9397 15.53 84.5277 15.628 85.1157 15.628C85.8437 15.628 86.3851 15.5113 86.7397 15.278C87.1037 15.0447 87.2857 14.7367 87.2857 14.354C87.2857 14.074 87.1831 13.8453 86.9777 13.668C86.7817 13.4813 86.5297 13.3367 86.2217 13.234C85.9137 13.1313 85.4937 13.0147 84.9617 12.884C84.2151 12.7067 83.6084 12.5293 83.1417 12.352C82.6844 12.1747 82.2877 11.8993 81.9517 11.526C81.6251 11.1433 81.4617 10.63 81.4617 9.986C81.4617 9.44467 81.6064 8.95467 81.8957 8.516C82.1944 8.068 82.6377 7.71333 83.2257 7.452C83.8231 7.19067 84.5511 7.06 85.4097 7.06C86.0071 7.06 86.5951 7.13467 87.1737 7.284C87.7524 7.43333 88.2517 7.648 88.6717 7.928L88.0977 9.342C87.6684 9.09 87.2204 8.89867 86.7537 8.768C86.2871 8.63733 85.8344 8.572 85.3957 8.572C84.6771 8.572 84.1404 8.69333 83.7857 8.936C83.4404 9.17867 83.2677 9.50067 83.2677 9.902C83.2677 10.182 83.3657 10.4107 83.5617 10.588C83.7671 10.7653 84.0237 10.9053 84.3317 11.008C84.6397 11.1107 85.0597 11.2273 85.5917 11.358C86.3197 11.526 86.9171 11.7033 87.3837 11.89C87.8504 12.0673 88.2471 12.3427 88.5737 12.716C88.9097 13.0893 89.0777 13.5933 89.0777 14.228C89.0777 14.7693 88.9284 15.2593 88.6297 15.698C88.3404 16.1367 87.8971 16.4867 87.2997 16.748C86.7024 17.0093 85.9744 17.14 85.1157 17.14ZM94.2564 12.898L92.7024 14.494V17H90.8824V7.2H92.7024V12.226L97.5464 7.2H99.5904L95.4744 11.582L99.8424 17H97.7144L94.2564 12.898ZM101.082 7.2H102.902V17H101.082V7.2ZM105.552 7.2H107.372V15.46H112.496V17H105.552V7.2ZM113.933 7.2H115.753V15.46H120.877V17H113.933V7.2ZM125.284 17.14C124.528 17.14 123.795 17.0327 123.086 16.818C122.386 16.6033 121.83 16.3187 121.42 15.964L122.05 14.55C122.451 14.8673 122.941 15.1287 123.52 15.334C124.108 15.53 124.696 15.628 125.284 15.628C126.012 15.628 126.553 15.5113 126.908 15.278C127.272 15.0447 127.454 14.7367 127.454 14.354C127.454 14.074 127.351 13.8453 127.146 13.668C126.95 13.4813 126.698 13.3367 126.39 13.234C126.082 13.1313 125.662 13.0147 125.13 12.884C124.383 12.7067 123.776 12.5293 123.31 12.352C122.852 12.1747 122.456 11.8993 122.12 11.526C121.793 11.1433 121.63 10.63 121.63 9.986C121.63 9.44467 121.774 8.95467 122.064 8.516C122.362 8.068 122.806 7.71333 123.394 7.452C123.991 7.19067 124.719 7.06 125.578 7.06C126.175 7.06 126.763 7.13467 127.342 7.284C127.92 7.43333 128.42 7.648 128.84 7.928L128.266 9.342C127.836 9.09 127.388 8.89867 126.922 8.768C126.455 8.63733 126.002 8.572 125.564 8.572C124.845 8.572 124.308 8.69333 123.954 8.936C123.608 9.17867 123.436 9.50067 123.436 9.902C123.436 10.182 123.534 10.4107 123.73 10.588C123.935 10.7653 124.192 10.9053 124.5 11.008C124.808 11.1107 125.228 11.2273 125.76 11.358C126.488 11.526 127.085 11.7033 127.552 11.89C128.018 12.0673 128.415 12.3427 128.742 12.716C129.078 13.0893 129.246 13.5933 129.246 14.228C129.246 14.7693 129.096 15.2593 128.798 15.698C128.508 16.1367 128.065 16.4867 127.468 16.748C126.87 17.0093 126.142 17.14 125.284 17.14Z" fill="white"/>
<line x1="153" y1="11.5" x2="294" y2="11.5" stroke="#545454"/>
</svg>
