<svg width="80" height="97" viewBox="0 0 80 97" fill="none" xmlns="http://www.w3.org/2000/svg">
<circle cx="40" cy="28" r="22" fill="#C4C4C4" fill-opacity="0.4"/>
<path d="M53 41H28V16H53V41Z" fill="#00C3FF"/>
<path d="M53 41H40.5V16H53V41Z" fill="#00C3FF"/>
<path d="M51.5352 39.5352H29.4648V17.4648H51.5352V39.5352Z" fill="#063E8B"/>
<path d="M51.5352 39.5352H40.5V17.4648H51.5352V39.5352Z" fill="#063E8B"/>
<path d="M40.4998 37.9911C39.9129 37.9911 39.3611 37.7625 38.9461 37.3475L31.6524 30.0538C31.2374 29.6388 31.0088 29.087 31.0088 28.5C31.0088 27.9131 31.2374 27.3613 31.6524 26.9463L38.9461 19.6526C39.3611 19.2376 39.9129 19.009 40.4998 19.009C41.0867 19.009 41.6385 19.2376 42.0535 19.6526L49.3472 26.9463C49.7623 27.3613 49.9908 27.9131 49.9908 28.5C49.9908 29.087 49.7623 29.6388 49.3472 30.0538L42.0535 37.3475C41.6385 37.7625 41.0867 37.9911 40.4998 37.9911ZM40.4998 20.4739C40.3042 20.4739 40.1203 20.5501 39.9819 20.6884L32.6882 27.9821C32.5499 28.1205 32.4736 28.3044 32.4736 28.5C32.4736 28.6957 32.5499 28.8796 32.6882 29.018L39.9819 36.3117C40.1202 36.45 40.3042 36.5262 40.4998 36.5262C40.6955 36.5262 40.8793 36.45 41.0177 36.3117L48.3114 29.018C48.4498 28.8796 48.526 28.6957 48.526 28.5C48.526 28.3044 48.4498 28.1205 48.3114 27.9821L41.0177 20.6884C40.8793 20.5501 40.6955 20.4739 40.4998 20.4739Z" fill="#CCEFFF"/>
<path d="M49.3474 26.9463L42.0537 19.6526C41.6387 19.2376 41.0869 19.009 40.5 19.009V20.4739C40.6957 20.4739 40.8795 20.5501 41.0179 20.6884L48.3116 27.9821C48.45 28.1205 48.5262 28.3044 48.5262 28.5C48.5262 28.6957 48.45 28.8796 48.3116 29.018L41.0179 36.3117C40.8796 36.45 40.6957 36.5262 40.5 36.5262V37.9911C41.0869 37.9911 41.6387 37.7625 42.0537 37.3475L49.3474 30.0538C49.7625 29.6388 49.991 29.087 49.991 28.5C49.991 27.9131 49.7625 27.3613 49.3474 26.9463Z" fill="#CCEFFF"/>
<path d="M43.0889 31.2148C42.1439 31.2148 41.4717 30.7852 41.2373 30.582L41.6279 29.9258C41.8779 30.1029 42.4532 30.4648 43.0654 30.4648C43.4623 30.4648 43.7373 30.2985 43.7373 30.0117C43.7373 29.6597 43.1565 29.5457 42.8389 29.457C42.5732 29.3841 41.3779 29.2162 41.3779 28.3164C41.3779 27.4502 42.1317 26.9648 42.9873 26.9648C43.8854 26.9648 44.3649 27.3295 44.5889 27.5273L44.167 28.1602C43.9586 28.0039 43.4948 27.707 42.9795 27.707C42.5997 27.707 42.3545 27.8693 42.3545 28.168C42.3545 28.5407 43.0081 28.6472 43.1592 28.6836C43.4404 28.7566 44.7451 28.9557 44.7451 29.918C44.7451 31.0553 43.5993 31.2148 43.0889 31.2148Z" fill="#00C3FF"/>
<path d="M36.7764 31.1367V25.5898H39.1279C40.2042 25.5898 40.8936 26.5794 40.8936 27.4336C40.8936 28.4403 40.1283 29.2773 39.167 29.2773H37.8545V31.1367H36.7764ZM37.8545 28.332H39.1045C39.4827 28.332 39.7998 27.9792 39.7998 27.4336C39.7998 26.9648 39.5152 26.5352 39.0576 26.5352H37.8545V28.332Z" fill="#00C3FF"/>
<path d="M40.5 26.2983V28.6039C40.7464 28.284 40.8937 27.8751 40.8937 27.4336C40.8937 27.0482 40.7529 26.6355 40.5 26.2983Z" fill="#00C3FF"/>
<path d="M63.3253 43.4897C66.1572 39.2252 67.7659 34.2659 67.9763 29.1511C68.1868 24.0362 66.991 18.9615 64.5189 14.4788C62.0468 9.99602 58.3931 6.27677 53.955 3.72539C49.517 1.17401 44.4644 -0.111842 39.3466 0.00762586L39.4466 4.29136C43.7812 4.19017 48.0606 5.27925 51.8195 7.44019C55.5784 9.60112 58.673 12.7512 60.7667 16.5479C62.8605 20.3447 63.8733 24.6428 63.6951 28.9749C63.5168 33.307 62.1543 37.5074 59.7558 41.1193L63.3253 43.4897Z" fill="#3B5999"/>
<path d="M23.9923 72.732H19.0923L18.1263 75H16.2503L20.6603 65.2H22.4523L26.8763 75H24.9723L23.9923 72.732ZM23.3903 71.304L21.5423 67.02L19.7083 71.304H23.3903ZM35.2083 64.612V75H33.5283V74.034C33.2389 74.3887 32.8796 74.6547 32.4503 74.832C32.0303 75.0093 31.5636 75.098 31.0503 75.098C30.3316 75.098 29.6829 74.9393 29.1043 74.622C28.5349 74.3047 28.0869 73.8567 27.7603 73.278C27.4336 72.69 27.2703 72.018 27.2703 71.262C27.2703 70.506 27.4336 69.8387 27.7603 69.26C28.0869 68.6813 28.5349 68.2333 29.1043 67.916C29.6829 67.5987 30.3316 67.44 31.0503 67.44C31.5449 67.44 31.9976 67.524 32.4083 67.692C32.8189 67.86 33.1689 68.112 33.4583 68.448V64.612H35.2083ZM31.2603 73.6C31.6803 73.6 32.0583 73.5067 32.3943 73.32C32.7303 73.124 32.9963 72.8487 33.1923 72.494C33.3883 72.1393 33.4863 71.7287 33.4863 71.262C33.4863 70.7953 33.3883 70.3847 33.1923 70.03C32.9963 69.6753 32.7303 69.4047 32.3943 69.218C32.0583 69.022 31.6803 68.924 31.2603 68.924C30.8403 68.924 30.4623 69.022 30.1263 69.218C29.7903 69.4047 29.5243 69.6753 29.3283 70.03C29.1323 70.3847 29.0343 70.7953 29.0343 71.262C29.0343 71.7287 29.1323 72.1393 29.3283 72.494C29.5243 72.8487 29.7903 73.124 30.1263 73.32C30.4623 73.5067 30.8403 73.6 31.2603 73.6ZM40.8576 75.098C40.1016 75.098 39.4203 74.9347 38.8136 74.608C38.2069 74.2813 37.7309 73.8287 37.3856 73.25C37.0496 72.662 36.8816 71.9993 36.8816 71.262C36.8816 70.5247 37.0496 69.8667 37.3856 69.288C37.7309 68.7093 38.2069 68.2567 38.8136 67.93C39.4203 67.6033 40.1016 67.44 40.8576 67.44C41.6229 67.44 42.3089 67.6033 42.9156 67.93C43.5223 68.2567 43.9936 68.7093 44.3296 69.288C44.6749 69.8667 44.8476 70.5247 44.8476 71.262C44.8476 71.9993 44.6749 72.662 44.3296 73.25C43.9936 73.8287 43.5223 74.2813 42.9156 74.608C42.3089 74.9347 41.6229 75.098 40.8576 75.098ZM40.8576 73.6C41.5016 73.6 42.0336 73.3853 42.4536 72.956C42.8736 72.5267 43.0836 71.962 43.0836 71.262C43.0836 70.562 42.8736 69.9973 42.4536 69.568C42.0336 69.1387 41.5016 68.924 40.8576 68.924C40.2136 68.924 39.6816 69.1387 39.2616 69.568C38.8509 69.9973 38.6456 70.562 38.6456 71.262C38.6456 71.962 38.8509 72.5267 39.2616 72.956C39.6816 73.3853 40.2136 73.6 40.8576 73.6ZM50.665 67.44C51.393 67.44 52.0417 67.5987 52.611 67.916C53.1897 68.2333 53.6424 68.6813 53.969 69.26C54.2957 69.8387 54.459 70.506 54.459 71.262C54.459 72.018 54.2957 72.69 53.969 73.278C53.6424 73.8567 53.1897 74.3047 52.611 74.622C52.0417 74.9393 51.393 75.098 50.665 75.098C50.1517 75.098 49.6804 75.0093 49.251 74.832C48.831 74.6547 48.4764 74.3887 48.187 74.034V75H46.521V64.612H48.271V68.434C48.5697 68.1073 48.9197 67.86 49.321 67.692C49.7317 67.524 50.1797 67.44 50.665 67.44ZM50.469 73.6C51.113 73.6 51.6404 73.3853 52.051 72.956C52.471 72.5267 52.681 71.962 52.681 71.262C52.681 70.562 52.471 69.9973 52.051 69.568C51.6404 69.1387 51.113 68.924 50.469 68.924C50.049 68.924 49.671 69.022 49.335 69.218C48.999 69.4047 48.733 69.6753 48.537 70.03C48.341 70.3847 48.243 70.7953 48.243 71.262C48.243 71.7287 48.341 72.1393 48.537 72.494C48.733 72.8487 48.999 73.124 49.335 73.32C49.671 73.5067 50.049 73.6 50.469 73.6ZM63.1467 71.304C63.1467 71.4253 63.1374 71.598 63.1187 71.822H57.2527C57.3554 72.3727 57.6214 72.8113 58.0507 73.138C58.4894 73.4553 59.0307 73.614 59.6747 73.614C60.496 73.614 61.1727 73.3433 61.7047 72.802L62.6427 73.88C62.3067 74.2813 61.882 74.5847 61.3687 74.79C60.8554 74.9953 60.2767 75.098 59.6327 75.098C58.8114 75.098 58.088 74.9347 57.4627 74.608C56.8374 74.2813 56.352 73.8287 56.0067 73.25C55.6707 72.662 55.5027 71.9993 55.5027 71.262C55.5027 70.534 55.666 69.8807 55.9927 69.302C56.3287 68.714 56.7907 68.2567 57.3787 67.93C57.9667 67.6033 58.6294 67.44 59.3667 67.44C60.0947 67.44 60.7434 67.6033 61.3127 67.93C61.8914 68.2473 62.3394 68.7 62.6567 69.288C62.9834 69.8667 63.1467 70.5387 63.1467 71.304ZM59.3667 68.84C58.8067 68.84 58.3307 69.008 57.9387 69.344C57.556 69.6707 57.3227 70.1093 57.2387 70.66H61.4807C61.406 70.1187 61.1774 69.68 60.7947 69.344C60.412 69.008 59.936 68.84 59.3667 68.84ZM5.83628 83.2C6.68561 83.2 7.42295 83.34 8.04828 83.62C8.68295 83.9 9.16828 84.3013 9.50428 84.824C9.84028 85.3467 10.0083 85.9673 10.0083 86.686C10.0083 87.3953 9.84028 88.016 9.50428 88.548C9.16828 89.0707 8.68295 89.472 8.04828 89.752C7.42295 90.032 6.68561 90.172 5.83628 90.172H3.62428V93H1.80428V83.2H5.83628ZM5.75228 88.632C6.54561 88.632 7.14761 88.464 7.55828 88.128C7.96895 87.792 8.17428 87.3113 8.17428 86.686C8.17428 86.0607 7.96895 85.58 7.55828 85.244C7.14761 84.908 6.54561 84.74 5.75228 84.74H3.62428V88.632H5.75228ZM16.0365 85.44C16.9792 85.44 17.7352 85.7153 18.3045 86.266C18.8738 86.8167 19.1585 87.6333 19.1585 88.716V93H17.4085V88.94C17.4085 88.2867 17.2545 87.7967 16.9465 87.47C16.6385 87.134 16.1998 86.966 15.6305 86.966C14.9865 86.966 14.4778 87.162 14.1045 87.554C13.7312 87.9367 13.5445 88.492 13.5445 89.22V93H11.7945V82.612H13.5445V86.392C13.8338 86.084 14.1885 85.8507 14.6085 85.692C15.0378 85.524 15.5138 85.44 16.0365 85.44ZM24.8068 93.098C24.0508 93.098 23.3695 92.9347 22.7628 92.608C22.1562 92.2813 21.6802 91.8287 21.3348 91.25C20.9988 90.662 20.8308 89.9993 20.8308 89.262C20.8308 88.5247 20.9988 87.8667 21.3348 87.288C21.6802 86.7093 22.1562 86.2567 22.7628 85.93C23.3695 85.6033 24.0508 85.44 24.8068 85.44C25.5722 85.44 26.2582 85.6033 26.8648 85.93C27.4715 86.2567 27.9428 86.7093 28.2788 87.288C28.6242 87.8667 28.7968 88.5247 28.7968 89.262C28.7968 89.9993 28.6242 90.662 28.2788 91.25C27.9428 91.8287 27.4715 92.2813 26.8648 92.608C26.2582 92.9347 25.5722 93.098 24.8068 93.098ZM24.8068 91.6C25.4508 91.6 25.9828 91.3853 26.4028 90.956C26.8228 90.5267 27.0328 89.962 27.0328 89.262C27.0328 88.562 26.8228 87.9973 26.4028 87.568C25.9828 87.1387 25.4508 86.924 24.8068 86.924C24.1628 86.924 23.6308 87.1387 23.2108 87.568C22.8002 87.9973 22.5948 88.562 22.5948 89.262C22.5948 89.962 22.8002 90.5267 23.2108 90.956C23.6308 91.3853 24.1628 91.6 24.8068 91.6ZM34.9643 92.594C34.7589 92.762 34.5069 92.888 34.2083 92.972C33.9189 93.056 33.6109 93.098 33.2843 93.098C32.4629 93.098 31.8283 92.8833 31.3803 92.454C30.9323 92.0247 30.7083 91.3993 30.7083 90.578V86.98H29.4763V85.58H30.7083V83.872H32.4583V85.58H34.4603V86.98H32.4583V90.536C32.4583 90.9 32.5469 91.18 32.7243 91.376C32.9016 91.5627 33.1583 91.656 33.4943 91.656C33.8863 91.656 34.2129 91.5533 34.4743 91.348L34.9643 92.594ZM39.5178 93.098C38.7618 93.098 38.0804 92.9347 37.4738 92.608C36.8671 92.2813 36.3911 91.8287 36.0458 91.25C35.7098 90.662 35.5418 89.9993 35.5418 89.262C35.5418 88.5247 35.7098 87.8667 36.0458 87.288C36.3911 86.7093 36.8671 86.2567 37.4738 85.93C38.0804 85.6033 38.7618 85.44 39.5178 85.44C40.2831 85.44 40.9691 85.6033 41.5758 85.93C42.1824 86.2567 42.6538 86.7093 42.9898 87.288C43.3351 87.8667 43.5078 88.5247 43.5078 89.262C43.5078 89.9993 43.3351 90.662 42.9898 91.25C42.6538 91.8287 42.1824 92.2813 41.5758 92.608C40.9691 92.9347 40.2831 93.098 39.5178 93.098ZM39.5178 91.6C40.1618 91.6 40.6938 91.3853 41.1138 90.956C41.5338 90.5267 41.7438 89.962 41.7438 89.262C41.7438 88.562 41.5338 87.9973 41.1138 87.568C40.6938 87.1387 40.1618 86.924 39.5178 86.924C38.8738 86.924 38.3418 87.1387 37.9218 87.568C37.5111 87.9973 37.3058 88.562 37.3058 89.262C37.3058 89.962 37.5111 90.5267 37.9218 90.956C38.3418 91.3853 38.8738 91.6 39.5178 91.6ZM47.4912 93.098C46.8845 93.098 46.2919 93.0187 45.7132 92.86C45.1345 92.7013 44.6725 92.5007 44.3272 92.258L44.9992 90.928C45.3352 91.152 45.7365 91.334 46.2032 91.474C46.6792 91.6047 47.1459 91.67 47.6032 91.67C48.6485 91.67 49.1712 91.3947 49.1712 90.844C49.1712 90.5827 49.0359 90.4007 48.7652 90.298C48.5039 90.1953 48.0792 90.0973 47.4912 90.004C46.8752 89.9107 46.3712 89.8033 45.9792 89.682C45.5965 89.5607 45.2605 89.3507 44.9712 89.052C44.6912 88.744 44.5512 88.3193 44.5512 87.778C44.5512 87.0687 44.8452 86.504 45.4332 86.084C46.0305 85.6547 46.8332 85.44 47.8412 85.44C48.3545 85.44 48.8679 85.5007 49.3812 85.622C49.8945 85.734 50.3145 85.888 50.6412 86.084L49.9692 87.414C49.3345 87.0407 48.6205 86.854 47.8272 86.854C47.3139 86.854 46.9219 86.9333 46.6512 87.092C46.3899 87.2413 46.2592 87.442 46.2592 87.694C46.2592 87.974 46.3992 88.1747 46.6792 88.296C46.9685 88.408 47.4119 88.5153 48.0092 88.618C48.6065 88.7113 49.0965 88.8187 49.4792 88.94C49.8619 89.0613 50.1885 89.2667 50.4592 89.556C50.7392 89.8453 50.8792 90.256 50.8792 90.788C50.8792 91.488 50.5759 92.048 49.9692 92.468C49.3625 92.888 48.5365 93.098 47.4912 93.098ZM56.6283 85.44C57.5709 85.44 58.3269 85.7153 58.8963 86.266C59.4656 86.8167 59.7503 87.6333 59.7503 88.716V93H58.0003V88.94C58.0003 88.2867 57.8463 87.7967 57.5383 87.47C57.2303 87.134 56.7916 86.966 56.2223 86.966C55.5783 86.966 55.0696 87.162 54.6963 87.554C54.3229 87.9367 54.1363 88.492 54.1363 89.22V93H52.3863V82.612H54.1363V86.392C54.4256 86.084 54.7803 85.8507 55.2003 85.692C55.6296 85.524 56.1056 85.44 56.6283 85.44ZM65.3986 93.098C64.6426 93.098 63.9613 92.9347 63.3546 92.608C62.748 92.2813 62.272 91.8287 61.9266 91.25C61.5906 90.662 61.4226 89.9993 61.4226 89.262C61.4226 88.5247 61.5906 87.8667 61.9266 87.288C62.272 86.7093 62.748 86.2567 63.3546 85.93C63.9613 85.6033 64.6426 85.44 65.3986 85.44C66.164 85.44 66.85 85.6033 67.4566 85.93C68.0633 86.2567 68.5346 86.7093 68.8706 87.288C69.216 87.8667 69.3886 88.5247 69.3886 89.262C69.3886 89.9993 69.216 90.662 68.8706 91.25C68.5346 91.8287 68.0633 92.2813 67.4566 92.608C66.85 92.9347 66.164 93.098 65.3986 93.098ZM65.3986 91.6C66.0426 91.6 66.5746 91.3853 66.9946 90.956C67.4146 90.5267 67.6246 89.962 67.6246 89.262C67.6246 88.562 67.4146 87.9973 66.9946 87.568C66.5746 87.1387 66.0426 86.924 65.3986 86.924C64.7546 86.924 64.2226 87.1387 63.8026 87.568C63.392 87.9973 63.1866 88.562 63.1866 89.262C63.1866 89.962 63.392 90.5267 63.8026 90.956C64.2226 91.3853 64.7546 91.6 65.3986 91.6ZM75.2061 85.44C75.9341 85.44 76.5827 85.5987 77.1521 85.916C77.7307 86.2333 78.1834 86.6813 78.5101 87.26C78.8367 87.8387 79.0001 88.506 79.0001 89.262C79.0001 90.018 78.8367 90.69 78.5101 91.278C78.1834 91.8567 77.7307 92.3047 77.1521 92.622C76.5827 92.9393 75.9341 93.098 75.2061 93.098C74.1981 93.098 73.4001 92.762 72.8121 92.09V95.716H71.0621V85.524H72.7281V86.504C73.0174 86.1493 73.3721 85.8833 73.7921 85.706C74.2214 85.5287 74.6927 85.44 75.2061 85.44ZM75.0101 91.6C75.6541 91.6 76.1814 91.3853 76.5921 90.956C77.0121 90.5267 77.2221 89.962 77.2221 89.262C77.2221 88.562 77.0121 87.9973 76.5921 87.568C76.1814 87.1387 75.6541 86.924 75.0101 86.924C74.5901 86.924 74.2121 87.022 73.8761 87.218C73.5401 87.4047 73.2741 87.6753 73.0781 88.03C72.8821 88.3847 72.7841 88.7953 72.7841 89.262C72.7841 89.7287 72.8821 90.1393 73.0781 90.494C73.2741 90.8487 73.5401 91.124 73.8761 91.32C74.2121 91.5067 74.5901 91.6 75.0101 91.6Z" fill="#545454"/>
</svg>
